<svg id="Layer_1" data-name="Layer 1" xmlns="http://www.w3.org/2000/svg" viewBox="0 0 474.95 284.2"><defs><style>.cls-1{fill:#c5164a;}.cls-2{fill:#21201f;}.cls-3{fill:none;}.cls-4{fill:#01b4c0;}.cls-5{fill:#c5e4ea;}.cls-6{fill:#336081;}.cls-7{fill:#003c57;}.cls-8{fill:#dcddde;}.cls-9{fill:#aac6cc;}.cls-10{fill:#1a97a4;}</style></defs><title>ZOLA_WEDDINGS-01</title><path class="cls-1" d="M234.86,7.45l-.18-.17h0Z"/><path class="cls-2" d="M85.9,202.36v9.95A3.84,3.84,0,0,1,82,216L6.75,216A3.77,3.77,0,0,1,3,212.21H3V200.92a3.86,3.86,0,0,1,1.07-2.48l53.8-60H3.74A3.72,3.72,0,0,1,0,134.74H0l.07-10.18a3.77,3.77,0,0,1,3.8-3.74h0l75.25.1a3.77,3.77,0,0,1,3.74,3.8h0v10.73a4,4,0,0,1-1,2.85l-53.7,60.27h54a3.77,3.77,0,0,1,3.74,3.8h0"/><path class="cls-2" d="M176.07,217.21a49,49,0,1,1,49.35-48.65v0a49,49,0,0,1-49.35,48.63m.58-79.56A30.56,30.56,0,1,0,207,168.44a30.56,30.56,0,0,0-30.35-30.79"/><path class="cls-2" d="M336.42,200.82v12.67c0,1.37-1.52,2.55-3.25,2.54H280.52a2.48,2.48,0,0,1-2.47-2.49h0v-90.2c0-1.37,1.79-2.48,3.17-2.47H294a2.48,2.48,0,0,1,2.47,2.49h0v75H333.3c1.73,0,3.13,1.13,3.12,2.51"/><path class="cls-2" d="M472.19,216H458.47a2.73,2.73,0,0,1-2.48-1.64l-8.19-19.24H403.15l-8.64,19.26A2.73,2.73,0,0,1,392,216H378.11a2.73,2.73,0,0,1-2.46-3.85l40.88-89.62a2.67,2.67,0,0,1,2.33-1.69h14.33a2.64,2.64,0,0,1,2.31,1.83l39.22,89.52A2.73,2.73,0,0,1,472.2,216M440,177.5l-14.16-32.36-14.68,32.38Z"/><path class="cls-3" d="M234.68,7.27h0l.19.17Z"/><path class="cls-4" d="M194.29,74.29c.24-.78,5.87-19.27,5.87-37.52,0-8.81-1.28-16.05-3.84-21.54a25.94,25.94,0,0,0-2-3.57l0-.06,0-.06a25.7,25.7,0,0,1,5.9-6.18A27,27,0,0,1,216.15,0h.35A27.14,27.14,0,0,1,226,1.76c.64.25,1.28.51,1.92.8a27.44,27.44,0,0,1,6.89,4.59l.08.07-.08.07q-.69.63-1.31,1.29l-.23.24-.51.56-.27.31-.47.57-.71.92-.14.2q-.47.64-.89,1.3l-.19.29-.37.61-.22.38-.33.6-.21.41-.3.61-.19.42q-.25.55-.48,1.11l-.19.47-.39,1.09-.19.58-.16.54-.16.57-.15.61c0,.06,0,.12-.05.18a1.08,1.08,0,0,0-.07.31c-.08.37-.15.73-.21,1.08a.6.6,0,0,0-.06.26,1.66,1.66,0,0,1,0,.23c0,.08,0,.17,0,.26a1.88,1.88,0,0,1-.07.41.58.58,0,0,0,0,.21,1.08,1.08,0,0,1,0,.31,2.54,2.54,0,0,0-.06.63v4.12a2,2,0,0,0,0,.31v.21a2.2,2.2,0,0,0,.06.5.74.74,0,0,1,.05.27c0,.05,0,.12,0,.21s0,.21.05.31a2.54,2.54,0,0,1,.07.5l.06.36c.07.39.15.76.24,1.15l0,.2c.07.35.16.68.25,1l.12.4q.12.39.25.78l.14.42q.14.39.3.78l.14.37c.14.36.31.73.47,1.1s.38.78.56,1.15l.62,1.13.22.38.67,1.1.14.21c.18.29.37.58.57.87l0,0v.08a5.81,5.81,0,0,1,.4.52l.31.42L233,45.08l.85,1.06.94,1.15-.06.06a73,73,0,0,1-8.79,8.3,144.42,144.42,0,0,1-25.63,16c-3.59,1.83-5.85,2.74-5.88,2.75l-.19.08Z"/><path class="cls-4" d="M233.76,46.2l-.17-.21-.68-.85-.24-.31-.6-.79-.22-.29-.73-1v0c-.25-.36-.48-.73-.71-1.09l-.19-.31-.48-.79-.22-.38-.43-.78L228.9,39c-.19-.37-.38-.74-.55-1.12s-.34-.76-.49-1.14l-.14-.37q-.16-.4-.3-.79l-.14-.42q-.13-.39-.25-.78l-.12-.4q-.14-.48-.25-1l-.05-.2c-.09-.39-.17-.77-.24-1.16l-.06-.38a7.36,7.36,0,0,0-.12-.8,1.59,1.59,0,0,0-.06-.46,3.81,3.81,0,0,1-.08-.74,3.47,3.47,0,0,1,0-.46v-4a2.65,2.65,0,0,1,.06-.66c.06-.22,0-.35.06-.52a5.44,5.44,0,0,0,.1-.66c0-.22,0-.33.08-.49.06-.35.13-.71.21-1.06a2.36,2.36,0,0,1,.12-.51l.15-.61.16-.57.16-.54.19-.58.18-.51.21-.58.19-.47q.23-.56.48-1.11l.19-.42.3-.61.21-.41.33-.6.22-.38.37-.61.19-.29q.42-.66.89-1.3l.14-.2.46-.6.25-.32.47-.57.27-.31.51-.56.23-.24q.63-.66,1.32-1.29a27.37,27.37,0,0,0-6.86-4.57c-.63-.29-1.27-.55-1.91-.8A27.12,27.12,0,0,0,216.21.14h-.06a26.7,26.7,0,0,0-15.86,5.31,25.66,25.66,0,0,0-5.88,6.16,26,26,0,0,1,2,3.58c2.87,6.15,3.86,13.82,3.85,21.58h0c0,18.4-5.79,37.29-5.87,37.55.2-.08,2.44-1,5.87-2.75a144,144,0,0,0,25.61-16,72.73,72.73,0,0,0,8.78-8.29h0Z"/><path class="cls-5" d="M275,74.39c-.22-.09-2.48-1.07-5.88-2.75a144.37,144.37,0,0,1-25.63-16,73,73,0,0,1-8.79-8.31l-.06-.07,1-1.16.85-1,.22-.28.83-1.1q.38-.48.73-1c.24-.42.48-.79.71-1.15l.2-.32.47-.78.64-1.15.19-.36c.19-.37.37-.73.55-1.11s.34-.76.5-1.14l.14-.36c.11-.27.21-.53.3-.8l.14-.41c.09-.26.17-.52.25-.79l.12-.39c.09-.34.18-.67.26-1v-.16c.09-.4.17-.79.24-1.18a.78.78,0,0,0,.06-.35c0-.12,0-.24,0-.36a2.37,2.37,0,0,1,.09-.48.26.26,0,0,0,0-.13.78.78,0,0,1,0-.31,2.68,2.68,0,0,0,.08-.73V25.33a1.17,1.17,0,0,1,0-.16.67.67,0,0,0,0-.3,1.57,1.57,0,0,1,0-.39.91.91,0,0,0,0-.28.92.92,0,0,1,0-.31c0-.06,0-.13,0-.21s0-.15,0-.23A1.63,1.63,0,0,0,243,23a1.22,1.22,0,0,1-.08-.51c-.06-.34-.13-.7-.21-1,0-.12,0-.2-.07-.32l0-.16c0-.21-.11-.45-.16-.64l-.15-.55-.17-.56-.18-.56-.19-.54c0-.14-.09-.28-.15-.41l-.27-.69c-.14-.34-.28-.67-.43-1l-.22-.48-.52-1-.32-.58-.6-1-.24-.36q-.37-.58-.77-1.13l-.22-.31-.43-.56-.29-.36-.45-.53-.78-.87-.3-.31q-.52-.54-1.08-1.06l-.26-.24.08-.07a27.46,27.46,0,0,1,6.89-4.59c.56-.27,1.17-.52,1.92-.8a27,27,0,0,1,25.71,3.54A25.74,25.74,0,0,1,275,11.5l0,.06,0,.06a26,26,0,0,0-2,3.57c-9.66,20.76,2,58.76,2.11,59.07l.17.26Z"/><path class="cls-5" d="M272.91,15.14a26,26,0,0,1,2-3.58A25.7,25.7,0,0,0,269,5.4a26.87,26.87,0,0,0-25.61-3.53c-.64.24-1.28.5-1.91.8a27.37,27.37,0,0,0-6.86,4.57h0l.18.17q.56.52,1.08,1.06l.3.31.47.52.31.35.45.53.29.36.43.56.22.31q.4.55.77,1.13l.24.36.35.58.25.42.32.58.23.45.29.58L241,16q.22.49.43,1c.07.18.15.36.22.55s.14.37.2.56l.19.54.18.56.17.56.15.55.16.64c.05.21.08.32.11.48.08.35.15.71.21,1.07a1.1,1.1,0,0,0,.07.47,3.26,3.26,0,0,1,.1.69,2.2,2.2,0,0,0,.06.5c.06.16,0,.45.06.68a1.33,1.33,0,0,1,0,.49v3.92a2.8,2.8,0,0,1-.08.76c-.08.25,0,.29-.06.44a7.68,7.68,0,0,0-.13.81.82.82,0,0,1-.06.37c-.07.39-.15.78-.24,1.16V33q-.12.49-.26,1l-.12.39q-.12.4-.25.79l-.14.41c-.09.27-.19.53-.3.8l-.14.36c-.16.38-.32.76-.5,1.14s-.36.74-.55,1.11l-.19.36-.42.76-.22.39-.47.78-.2.32-.71,1.09v.06q-.35.52-.73,1l-.21.28-.62.82-.22.28-.72.89-.13.16-.93,1.09h0a72.61,72.61,0,0,0,8.78,8.3,144,144,0,0,0,25.61,16c3.43,1.7,5.67,2.67,5.87,2.75C274.83,74,263.25,35.91,272.91,15.14Z"/><path class="cls-6" d="M194.24,74.39c-2.2-1-4.35-2-5.76-2.7-9.79-4.86-33.37-17.88-40.79-33.78-6.14-13.18-.19-29,13.27-35.29a27,27,0,0,1,27.61,2.74,25.73,25.73,0,0,1,5.9,6.18l0,.06,0,.06a25.76,25.76,0,0,0-2,3.57c-2.55,5.51-3.84,12.78-3.84,21.6l0,.13c.08,18.49,5.81,37.19,5.87,37.37l.07.21Z"/><path class="cls-6" d="M188.54,36.82c0-7.78,1-15.48,3.85-21.64a25.81,25.81,0,0,1,2-3.58,25.69,25.69,0,0,0-5.88-6.16A26.91,26.91,0,0,0,161,2.71c-13.44,6.27-19.35,22-13.22,35.16,7.29,15.63,29.92,28.36,40.74,33.73,3.43,1.7,5.67,2.66,5.87,2.75-.08-.25-5.79-19.06-5.87-37.42Z"/><path class="cls-7" d="M194.36,74.37c-.06-.18-5.8-18.94-5.87-37.45,0-8.94,1.28-16.24,3.86-21.78a26,26,0,0,1,2-3.59l.08-.12.08.12a26.13,26.13,0,0,1,2,3.59c2.56,5.52,3.86,12.79,3.86,21.62,0,18.6-5.78,37.43-5.83,37.61l-.1.3Z"/><path class="cls-7" d="M200.29,36.76c0-7.76-1-15.44-3.85-21.58a26,26,0,0,0-2-3.58,25.81,25.81,0,0,0-2,3.58c-2.87,6.16-3.87,13.86-3.85,21.64v.1c.07,18.36,5.79,37.17,5.87,37.42h0c.08-.25,5.82-19.15,5.87-37.55Z"/><path class="cls-8" d="M274.9,74.35a5,5,0,0,1,.16-.6c2.09-7.55,5.6-22.38,5.69-36.82v-.32c0-8.75-1.29-16-3.84-21.43a26,26,0,0,0-2.05-3.51l0-.06,0-.06a25.72,25.72,0,0,1,5.9-6.18A27,27,0,0,1,296.68,0h.12a27.48,27.48,0,0,1,11.58,2.58c13.44,6.26,19.42,22.09,13.33,35.29-7.42,15.9-31,28.92-40.8,33.78-3,1.51-5.08,2.42-5.84,2.74l-.14.06Z"/><path class="cls-8" d="M308.34,2.71A27.21,27.21,0,0,0,296.74.14h-.06a26.71,26.71,0,0,0-15.86,5.31,25.71,25.71,0,0,0-5.88,6.16A26,26,0,0,1,277,15.14c2.85,6.12,3.85,13.75,3.85,21.47v.32c-.12,18.4-5.85,37.21-5.85,37.42.19-.08,2.43-1,5.87-2.75,10.82-5.37,33.45-18.1,40.75-33.73C327.69,24.72,321.78,9,308.34,2.71Z"/><path class="cls-9" d="M274.84,74.26c-1.17-4-11.12-39.5-2-59.13a26.17,26.17,0,0,1,2-3.59l.08-.12.08.12a26.13,26.13,0,0,1,2,3.59c2.56,5.49,3.86,12.73,3.86,21.51l0,.32c-.09,17.58-5.27,35.4-5.87,37.38l-.1.34Z"/><path class="cls-9" d="M280.82,36.65c0-7.73-1-15.36-3.85-21.47a26,26,0,0,0-2-3.58,26,26,0,0,0-2,3.58c-9.67,20.73,1.91,58.82,2,59.17h0c.07-.24,5.78-19,5.87-37.37Z"/><path class="cls-10" d="M233.58,46.33l-.85-1.06-1.06-1.39c-.25-.31-.5-.66-.73-1l0,0v-.08c-.22-.3-.46-.68-.69-1l-.67-1.1-.22-.38-.62-1.13c-.19-.37-.38-.75-.55-1.13s-.32-.75-.48-1.12l-.15-.4c-.11-.26-.21-.52-.3-.79l-.14-.42q-.13-.39-.25-.78l-.12-.4-.3-1.2c-.09-.39-.17-.78-.24-1.17l-.06-.38c0-.09,0-.19,0-.29a2.62,2.62,0,0,0-.08-.49.51.51,0,0,1,0-.22.61.61,0,0,0,0-.24,2.73,2.73,0,0,1-.08-.77V25.38a1.14,1.14,0,0,0,0-.15.9.9,0,0,1,0-.39,1.28,1.28,0,0,0,0-.32,1.06,1.06,0,0,1,0-.34.83.83,0,0,0,0-.27c0-.07,0-.14,0-.23s.07-.5.1-.67l0-.13a1.7,1.7,0,0,0,.05-.34l.07-.39c0-.23.09-.47.14-.7l.27-1.12.16-.57.16-.54.19-.58.39-1.09.19-.47q.23-.56.48-1.11l.19-.42.3-.61.21-.41.33-.6.22-.38.37-.61.19-.29q.43-.66.89-1.3l.14-.2.71-.92.47-.57.27-.31.51-.56.23-.24c.43-.44.86-.87,1.32-1.29l.07-.06.26.23q.56.52,1.09,1.07l.3.31.78.87.37.52.29.36.43.56.22.31q.4.56.77,1.13l.24.36.6,1,.32.58.52,1,.22.48c.15.34.36.82.43,1l.22.55.39,1.1.18.56.17.56.15.55c.06.21.13.49.16.65a1.43,1.43,0,0,0,0,.17,1.13,1.13,0,0,1,.06.33q.12.51.21,1.05a.63.63,0,0,1,0,.26,1.41,1.41,0,0,0,0,.21c0,.09,0,.19,0,.29a1.74,1.74,0,0,0,.06.38.69.69,0,0,1,0,.26.92.92,0,0,0,0,.25,3,3,0,0,1,.06.71V29a2.11,2.11,0,0,1,0,.33v.22a2.19,2.19,0,0,1-.07.57.4.4,0,0,0,0,.17,1.86,1.86,0,0,1,0,.25c0,.1,0,.2-.06.3a2.42,2.42,0,0,0-.07.5.89.89,0,0,0-.06.37c-.07.4-.15.79-.24,1.18V33c-.08.36-.17.7-.26,1l-.12.39q-.12.4-.25.79l-.14.41c-.06.17-.12.34-.19.51l-.25.65c-.16.38-.33.77-.5,1.15s-.35.72-.53,1.08l-.21.4-.64,1.15-.47.78-.2.32c-.23.37-.46.73-.71,1.09l-.73,1.06-.83,1.1-.22.28-.72.89-.25.23-1,1.17Z"/><path class="cls-10" d="M235.74,46l.72-.89.22-.28.62-.82.21-.28.73-1V42.7c.25-.36.48-.72.71-1.09l.2-.32.47-.78.22-.39.42-.76.19-.36c.19-.37.38-.74.55-1.11s.34-.76.5-1.14l.14-.36c.1-.27.21-.53.3-.8l.14-.41q.13-.39.25-.79l.12-.39q.14-.49.26-1v-.18c.09-.39.17-.78.24-1.16a.82.82,0,0,1,.06-.37,5.69,5.69,0,0,1,.13-.81c0-.27,0-.29.06-.44a3.85,3.85,0,0,0,.08-.76,3.14,3.14,0,0,0,0-.44v-4a2.89,2.89,0,0,0-.06-.68c-.06-.23,0-.34-.06-.5a5.41,5.41,0,0,1-.1-.69c0-.23,0-.31-.07-.47-.06-.36-.13-.71-.21-1.07a2.77,2.77,0,0,0-.11-.48c0-.16-.1-.43-.16-.64s-.1-.36-.15-.55l-.17-.56-.18-.56-.19-.54-.2-.56c-.07-.19-.15-.37-.22-.55s-.28-.66-.43-1l-.22-.48-.29-.58-.23-.45-.32-.58-.25-.42-.35-.58-.24-.36q-.37-.57-.77-1.13l-.22-.31-.43-.56-.29-.36L237,9.7l-.31-.35-.47-.52-.3-.31q-.52-.54-1.08-1.06l-.19-.17c-.46.42-.89.85-1.32,1.29l-.23.24-.51.56-.27.31-.47.57-.25.32-.46.6-.14.2q-.46.64-.89,1.3l-.19.29-.37.61-.22.38-.33.6-.21.41-.3.61-.19.42q-.25.55-.48,1.11l-.19.47-.21.58-.18.51-.19.58-.16.54-.16.57-.15.61c0,.2-.08.34-.12.51-.08.35-.14.71-.21,1.06a2.78,2.78,0,0,1-.08.49c0,.16-.07.44-.1.66a2.57,2.57,0,0,1-.06.52c-.06.17,0,.44-.06.66a1.45,1.45,0,0,0,0,.51v3.93A2.63,2.63,0,0,0,226,30c.08.25,0,.3.06.46a6,6,0,0,1,.12.8l.06.38c.07.39.15.77.24,1.16l.05.2.25,1,.12.4q.12.39.25.78l.14.42q.14.4.3.79l.14.37c.16.38.32.76.49,1.14s.36.75.55,1.12l.19.35.43.78.22.38.48.79.19.31.71,1.09v0c.23.34.48.69.73,1l.22.29.6.79.24.31.68.85.17.21.91,1.07h0l.93-1.09Z"/><path class="cls-2" d="M341,268.06a1.51,1.51,0,0,0-.08,1.68c.33.81,1.59,1.31,2.66,1.62l1.65.46h.17c1.8.52,4.22,1.51,5.19,3.92a5.41,5.41,0,0,1-.64,5.56,8.17,8.17,0,0,1-6.39,2.7,10.09,10.09,0,0,1-1.45-.1,7.33,7.33,0,0,1-5.41-3.31.85.85,0,0,1,.27-1.17l.14-.07,2.12-.84a.84.84,0,0,1,1,.27,3.92,3.92,0,0,0,2.48,1.24c1.69.25,3.5-.24,4.2-1.14a1.51,1.51,0,0,0,.08-1.68c-.33-.82-1.6-1.31-2.67-1.62l-1.56-.42h-.06c-1.82-.51-4.39-1.48-5.39-4a5.41,5.41,0,0,1,.64-5.56c1.58-2,4.73-3,7.84-2.59a7.32,7.32,0,0,1,5.44,3.34.82.82,0,0,1-.27,1.13l-.12.06-2.18.86a.8.8,0,0,1-.94-.26,3.9,3.9,0,0,0-2.49-1.26C343.49,266.67,341.69,267.14,341,268.06Z"/><path class="cls-2" d="M148.57,264.08h0l-4.38,13.45-2,6a.69.69,0,0,1-.66.48h-2.7a.69.69,0,0,1-.66-.48l-4.88-14.86-1.9,5.83-2.94,9a.71.71,0,0,1-.67.49H125.1a.71.71,0,0,1-.67-.49l-1.74-5.36-4.6-14a.71.71,0,0,1,.67-.93h2.63a.71.71,0,0,1,.67.49h0l1.87,5.68,1.88,5.74.67,2,4.38-13.46a.71.71,0,0,1,.66-.48h3.61a.69.69,0,0,1,.65.48l4.44,13.48.66-2h0l3.73-11.46a.69.69,0,0,1,.66-.48h2.65a.69.69,0,0,1,.65.88Z"/><path class="cls-2" d="M165.05,266.92v4.55h8.24a.55.55,0,0,1,.55.55v2.81a.55.55,0,0,1-.55.55h-8.24v4.76h10.68a.55.55,0,0,1,.55.55v2.81a.55.55,0,0,1-.55.55h-14a.55.55,0,0,1-.55-.55V263.6a.55.55,0,0,1,.55-.55h1.73a.53.53,0,0,1,.22,0h12.09a.55.55,0,0,1,.55.55v2.81a.55.55,0,0,1-.55.55Z"/><path class="cls-2" d="M208.79,273.66a9.18,9.18,0,0,1-3.15,7.3c-3,2.62-7.64,3.14-10.82,3.14-.67,0-1.28,0-1.8,0h-2.91a.55.55,0,0,1-.55-.55V263.6a.55.55,0,0,1,.55-.55h2.61c2.83-.16,9.11-.09,12.93,3.25A9.3,9.3,0,0,1,208.79,273.66Zm-3.91,0a5.49,5.49,0,0,0-1.8-4.39c-2.4-2.1-6.84-2.43-9.61-2.33v13.2c2.76.15,7.23-.1,9.63-2.17a5.38,5.38,0,0,0,1.78-4.31Z"/><path class="cls-2" d="M239.94,273.66a9.18,9.18,0,0,1-3.15,7.3c-3,2.62-7.64,3.14-10.82,3.14-.67,0-1.28,0-1.8,0h-2.91a.55.55,0,0,1-.55-.55V263.6a.55.55,0,0,1,.55-.55h2.61c2.83-.16,9.11-.09,12.93,3.25A9.3,9.3,0,0,1,239.94,273.66Zm-3.91,0a5.49,5.49,0,0,0-1.8-4.39c-2.4-2.1-6.84-2.43-9.61-2.33v13.2c2.76.15,7.23-.1,9.63-2.17a5.38,5.38,0,0,0,1.75-4.31Z"/><path class="cls-2" d="M256.57,284.06h-2.81a.55.55,0,0,1-.55-.55v-19.9a.55.55,0,0,1,.55-.55h2.81a.55.55,0,0,1,.55.55v19.9A.55.55,0,0,1,256.57,284.06Z"/><path class="cls-2" d="M290.85,263.61v19.9a.55.55,0,0,1-.55.55h-2.88a.54.54,0,0,1-.3-.14l-.06-.08-10-12.94v12.62a.55.55,0,0,1-.55.55H273.7a.55.55,0,0,1-.55-.55v-19.9a.55.55,0,0,1,.55-.55h2.81a.55.55,0,0,1,.38.16h0l10,13.27V263.61a.55.55,0,0,1,.55-.55h2.81a.55.55,0,0,1,.6.5S290.85,263.59,290.85,263.61Z"/><path class="cls-2" d="M322.16,273.14v7h0v3.09c0,.45-.25.82-.55.82H318.8c-.28,0-.51-.32-.54-.73a10.77,10.77,0,1,1,3.22-17.65,1.05,1.05,0,0,1,0,1.48l0,0-1.27,1.26a1,1,0,0,1-1.41,0l0,0a6.87,6.87,0,1,0-.49,10.37v-2.26h-4.34a.55.55,0,0,1-.55-.55v-2.85a.55.55,0,0,1,.55-.55h7.69A.55.55,0,0,1,322.16,273.14Z"/></svg>